<svg width="142" height="130" viewBox="0 0 142 130" fill="none" xmlns="http://www.w3.org/2000/svg">
<path d="M76.883 59.486L70.868 0L64.853 59.486L0 64.9973L64.853 70.514L70.868 130L76.883 70.514L141.742 64.9973L76.883 59.486Z" fill="#FFF6FB"/>
<path d="M110.565 47.8563L112.779 25.9613L136.658 23.9308L112.779 21.9003L110.565 0L108.352 21.9003L84.4731 23.9308L108.352 25.9613L110.565 47.8563Z" fill="#FFF6FB"/>
<path d="M27.0702 83.062L25.8753 94.8905L12.9785 95.9917L25.8753 97.0875L27.0702 108.916L28.265 97.0875L41.1677 95.9917L28.265 94.8905L27.0702 83.062Z" fill="#FFF6FB"/>
<path d="M98.5301 88.1654L97.3353 76.3369L96.1405 88.1654L83.2378 89.2612L96.1405 90.3571L97.3353 102.191L98.5301 90.3571L111.433 89.2612L98.5301 88.1654Z" fill="#FFF6FB"/>
<path d="M41.1678 43.994L42.3626 32.1602L55.2593 31.0644L42.3626 29.9686L41.1678 18.1401L39.973 29.9686L27.0703 31.0644L39.973 32.1602L41.1678 43.994Z" fill="#FFF6FB"/>
<path d="M116.762 92.4839L115.568 104.318L102.671 105.413L115.568 106.509L116.762 118.338L117.963 106.509L130.86 105.413L117.963 104.318L116.762 92.4839Z" fill="#FFF6FB"/>
</svg>
