<svg width="224" height="205" viewBox="0 0 224 205" fill="none" xmlns="http://www.w3.org/2000/svg">
<g clip-path="url(#clip0_9_59)">
<path d="M127.884 6.02142C119.112 -2.00715 104.888 -2.00714 96.1157 6.02144L6.57951 87.963C-2.19317 95.9916 -2.19317 109.008 6.57952 117.037L96.1157 198.979C104.888 207.007 119.112 207.007 127.884 198.979L172.652 158.008H142.326L119.942 178.493C115.556 182.507 108.444 182.507 104.058 178.493L28.9636 109.769C24.5772 105.754 24.5772 99.2458 28.9636 95.2315L104.058 26.5068C108.444 22.4925 115.556 22.4925 119.942 26.5068L142.326 46.9922H172.652L127.884 6.02142ZM154.457 58.0938L195.036 95.2315C199.423 99.2458 199.423 105.754 195.036 109.769L154.457 146.906H184.783L217.42 117.037C226.193 109.008 226.193 95.9916 217.42 87.963L184.783 58.0938H154.457Z" fill="#EF476F"/>
<path d="M59.6927 107.045V103.188C58.8177 103.254 57.8708 103.347 56.852 103.468C55.8331 103.578 55.06 103.71 54.5326 103.864C53.8854 104.05 53.3879 104.325 53.0403 104.688C52.7047 105.039 52.5369 105.506 52.5369 106.089C52.5369 106.473 52.5729 106.786 52.6449 107.028C52.7169 107.27 52.8967 107.501 53.1843 107.72C53.46 107.94 53.7896 108.105 54.1732 108.215C54.5568 108.314 55.1561 108.363 55.9712 108.363C56.6184 108.363 57.2717 108.242 57.9309 108C58.6022 107.759 59.1895 107.44 59.6929 107.044L59.6927 107.045ZM59.6927 109.912C59.3451 110.154 58.9136 110.445 58.3982 110.786C57.8828 111.126 57.3974 111.396 56.9419 111.593C56.3066 111.857 55.6473 112.049 54.9641 112.17C54.2809 112.302 53.5317 112.368 52.7167 112.368C50.7989 112.368 49.1927 111.824 47.8982 110.736C46.6036 109.649 45.9564 108.259 45.9564 106.567C45.9564 105.215 46.286 104.111 46.9452 103.254C47.6045 102.397 48.5394 101.721 49.75 101.227C50.9487 100.732 52.435 100.381 54.209 100.172C55.9829 99.9631 57.8229 99.8092 59.7287 99.7103V99.6113C59.7287 98.5895 59.2732 97.8863 58.3622 97.5017C57.4513 97.1062 56.1088 96.9084 54.3348 96.9084C53.2681 96.9084 52.1293 97.0842 50.9187 97.4358C49.7081 97.7764 48.8391 98.0401 48.3117 98.2269H47.7184V93.7605C48.4016 93.5956 49.5103 93.4034 51.0446 93.1836C52.5908 92.9529 54.1371 92.8375 55.6833 92.8375C59.3631 92.8375 62.0181 93.3594 63.6482 94.4033C65.2904 95.4361 66.1114 97.0622 66.1114 99.2817V111.873H59.6927V109.912Z" fill="#EF476F"/>
<path d="M81.4928 112.368C79.7206 112.368 78.0991 112.176 76.6283 111.791C75.1696 111.406 73.8977 110.812 72.8127 110.009C71.7398 109.206 70.9079 108.195 70.3172 106.974C69.7265 105.753 69.4311 104.324 69.4311 102.685C69.4311 100.959 69.7446 99.4687 70.3715 98.215C71.0104 96.9614 71.8965 95.9222 73.0297 95.0974C74.1268 94.3166 75.3926 93.7448 76.8272 93.3819C78.2619 93.019 79.7507 92.8375 81.2938 92.8375C82.6802 92.8375 83.9581 92.975 85.1275 93.2499C86.2969 93.5248 87.3879 93.8822 88.4006 94.3221V99.3862H87.4784C87.2252 99.1882 86.9178 98.9573 86.5561 98.6934C86.2065 98.4294 85.7725 98.171 85.2541 97.9181C84.7598 97.6762 84.2173 97.4782 83.6266 97.3243C83.0359 97.1593 82.3487 97.0768 81.5651 97.0768C79.8291 97.0768 78.4909 97.5827 77.5506 98.5944C76.6223 99.5951 76.1582 100.959 76.1582 102.685C76.1582 104.467 76.6344 105.819 77.5867 106.743C78.5512 107.667 79.9135 108.129 81.6736 108.129C82.4934 108.129 83.2288 108.046 83.8798 107.881C84.5428 107.705 85.0914 107.502 85.5254 107.271C85.9353 107.051 86.2969 106.82 86.6104 106.578C86.9238 106.336 87.2131 106.1 87.4784 105.869H88.4006V110.933C87.3759 111.373 86.3029 111.719 85.1818 111.972C84.0727 112.236 82.843 112.368 81.4928 112.368V112.368Z" fill="#EF476F"/>
<path d="M111.194 98.7617V111.934H104.696V102.651C104.696 101.746 104.672 100.979 104.624 100.35C104.576 99.7105 104.445 99.1919 104.229 98.7948C104.014 98.3976 103.684 98.1108 103.242 97.9343C102.811 97.7468 102.2 97.653 101.411 97.653C100.776 97.653 100.16 97.7744 99.5615 98.0171C98.9631 98.2487 98.4246 98.497 97.9459 98.7618V111.934H91.4832V93.3505H97.9459V95.4024C99.0589 94.5971 100.124 93.9683 101.141 93.516C102.159 93.0637 103.284 92.8375 104.516 92.8375C105.845 92.8375 107.018 93.1133 108.035 93.6649C109.052 94.2055 109.848 95.0053 110.422 96.0644C111.715 95.0605 112.972 94.2717 114.192 93.698C115.413 93.1244 116.61 92.8375 117.783 92.8375C119.961 92.8375 121.612 93.4387 122.737 94.6412C123.874 95.8437 124.443 97.5758 124.443 99.8374V111.934H117.944V102.651C117.944 101.735 117.92 100.963 117.873 100.334C117.837 99.705 117.711 99.192 117.496 98.7948C117.292 98.3977 116.969 98.1109 116.526 97.9343C116.083 97.7468 115.461 97.653 114.659 97.653C114.121 97.653 113.594 97.7412 113.079 97.9177C112.565 98.0832 111.936 98.3645 111.194 98.7616L111.194 98.7617Z" fill="#EF476F"/>
<path d="M141.989 103.254H128.236V98.6967H141.989V103.254Z" fill="#EF476F"/>
<path d="M178.031 93.4885L171.787 111.934H164.932L160.822 99.5001L156.785 111.934H149.84L143.649 93.4885H150.432L153.878 106.202L158.184 93.4885H163.909L168 106.202L171.392 93.4885H178.031Z" fill="#EF476F"/>
</g>
<defs>
<clipPath id="clip0_9_59">
<rect width="224" height="205" fill="white"/>
</clipPath>
</defs>
</svg>
