<svg width="157" height="90" viewBox="0 0 157 90" fill="none" xmlns="http://www.w3.org/2000/svg">
<path d="M157 21.5141L138.577 19.2096L130.341 4.82334L122.105 19.2096L110.244 20.6947L98.9075 0.889205L86.4691 22.6175L69.078 24.7965L54.8844 0L37.9254 29.6291L0 34.3779L27.4422 57.4378L20.9664 90L54.8898 74.6267L88.8131 90L83.3744 62.6615L98.9128 55.6174L123.795 66.8936L119.625 45.9242L130.357 41.0589L146.835 48.5267L143.687 32.7112L157 21.5141ZM54.879 69.4496L28.0147 81.6243L33.1456 55.8409L11.4122 37.5764L41.4468 33.8146L54.879 10.3544L68.3111 33.8146L98.3458 37.5764L76.6124 55.8409L81.7433 81.6243L54.879 69.4496ZM98.9021 50.4449L82.4184 57.9174L82.3211 57.4378L109.763 34.3779L71.838 29.6291L71.5463 29.1169L89.9905 26.8077L98.9021 11.2436L107.814 26.8077L127.738 29.3032L113.317 41.4174L116.72 58.5226L98.9021 50.4449ZM130.341 35.8864L124.2 38.6705L139.161 26.1L121.591 23.8979L125.631 23.3904L130.341 15.1637L135.051 23.3904L145.582 24.708L137.962 31.1096L139.76 40.1511L130.341 35.8864Z" fill="white"/>
</svg>
