<svg width="70" height="33" viewBox="0 0 70 33" fill="none" xmlns="http://www.w3.org/2000/svg">
<path d="M69.2333 7.88032L61.1094 7.03619L57.4773 1.76672L53.8452 7.03619L48.6151 7.58018L43.6159 0.325703L38.1308 8.28448L30.4618 9.08259L24.2027 0L16.7242 10.8527L0 12.5921L12.1014 21.0387L9.24571 32.9657L24.2051 27.3347L39.1645 32.9657L36.7661 22.952L43.6182 20.3719L54.5907 24.5022L52.752 16.8214L57.4845 15.0393L64.751 17.7747L63.3625 11.9816L69.2333 7.88032ZM24.2003 25.4384L12.3538 29.8978L14.6164 20.4537L5.03251 13.7637L18.2771 12.3858L24.2003 3.79265L30.1236 12.3858L43.3682 13.7637L33.7843 20.4537L36.0469 29.8978L24.2003 25.4384ZM43.6135 18.4772L36.3446 21.2143L36.3017 21.0387L48.4031 12.5921L31.6789 10.8527L31.5502 10.6651L39.6837 9.81928L43.6135 4.11838L47.5433 9.81928L56.3293 10.7333L49.9702 15.1706L51.4707 21.436L43.6135 18.4772ZM57.4773 13.1447L54.7693 14.1645L61.3666 9.56007L53.619 8.75345L55.4005 8.56758L57.4773 5.55425L59.5541 8.56758L64.1984 9.05018L60.8379 11.395L61.631 14.7068L57.4773 13.1447Z" fill="white"/>
</svg>
