<svg width="66" height="68" viewBox="0 0 66 68" fill="none" xmlns="http://www.w3.org/2000/svg">
<g clip-path="url(#clip0_1_2)">
<g clip-path="url(#clip1_1_2)">
<path d="M34.0558 5.67595C41.7665 5.67595 42.7286 5.70433 45.7539 5.84623C48.7763 5.98812 50.8339 6.46207 52.6445 7.16588C54.5175 7.88673 56.0955 8.86299 57.6734 10.4381C59.1165 11.8568 60.2331 13.5729 60.9456 15.467C61.6465 17.2747 62.1233 19.3351 62.2652 22.3576C62.3986 25.3828 62.4355 26.3449 62.4355 34.0557C62.4355 41.7665 62.4071 42.7285 62.2652 45.7538C62.1233 48.7762 61.6465 50.8338 60.9456 52.6444C60.2351 54.5395 59.1182 56.2561 57.6734 57.6733C56.2543 59.1159 54.5383 60.2324 52.6445 60.9455C50.8367 61.6465 48.7763 62.1232 45.7539 62.2651C42.7286 62.3985 41.7665 62.4354 34.0558 62.4354C26.345 62.4354 25.3829 62.407 22.3576 62.2651C19.3352 62.1232 17.2777 61.6465 15.467 60.9455C13.5722 60.2345 11.8558 59.1177 10.4382 57.6733C8.99478 56.2548 7.8781 54.5387 7.16597 52.6444C6.46215 50.8366 5.98821 48.7762 5.84631 45.7538C5.71293 42.7285 5.67603 41.7665 5.67603 34.0557C5.67603 26.3449 5.70441 25.3828 5.84631 22.3576C5.98821 19.3323 6.46215 17.2776 7.16597 15.467C7.87613 13.5717 8.99307 11.8551 10.4382 10.4381C11.8562 8.99419 13.5725 7.87745 15.467 7.16588C17.2777 6.46207 19.3324 5.98812 22.3576 5.84623C25.3829 5.71284 26.345 5.67595 34.0558 5.67595ZM34.0558 19.8658C30.2924 19.8658 26.6831 21.3608 24.022 24.0219C21.3609 26.683 19.8659 30.2923 19.8659 34.0557C19.8659 37.8191 21.3609 41.4283 24.022 44.0894C26.6831 46.7505 30.2924 48.2455 34.0558 48.2455C37.8192 48.2455 41.4284 46.7505 44.0895 44.0894C46.7506 41.4283 48.2456 37.8191 48.2456 34.0557C48.2456 30.2923 46.7506 26.683 44.0895 24.0219C41.4284 21.3608 37.8192 19.8658 34.0558 19.8658V19.8658ZM52.5026 19.1563C52.5026 18.2155 52.1288 17.3132 51.4636 16.6479C50.7983 15.9826 49.896 15.6089 48.9551 15.6089C48.0143 15.6089 47.112 15.9826 46.4467 16.6479C45.7814 17.3132 45.4077 18.2155 45.4077 19.1563C45.4077 20.0972 45.7814 20.9995 46.4467 21.6648C47.112 22.33 48.0143 22.7038 48.9551 22.7038C49.896 22.7038 50.7983 22.33 51.4636 21.6648C52.1288 20.9995 52.5026 20.0972 52.5026 19.1563ZM34.0558 25.5418C36.3138 25.5418 38.4793 26.4388 40.076 28.0354C41.6727 29.6321 42.5697 31.7976 42.5697 34.0557C42.5697 36.3137 41.6727 38.4793 40.076 40.0759C38.4793 41.6726 36.3138 42.5696 34.0558 42.5696C31.7977 42.5696 29.6322 41.6726 28.0355 40.0759C26.4388 38.4793 25.5418 36.3137 25.5418 34.0557C25.5418 31.7976 26.4388 29.6321 28.0355 28.0354C29.6322 26.4388 31.7977 25.5418 34.0558 25.5418V25.5418Z" fill="white"/>
</g>
</g>
<defs>
<clipPath id="clip0_1_2">
<rect width="66" height="68" fill="white"/>
</clipPath>
<clipPath id="clip1_1_2">
<rect width="68.1114" height="68.1114" fill="white"/>
</clipPath>
</defs>
</svg>
