<svg width="191" height="138" viewBox="0 0 191 138" fill="none" xmlns="http://www.w3.org/2000/svg">
<path d="M174.06 105.269L169.624 88.5308L158.992 102.217L141.638 101.254L151.422 115.562L145.143 131.7L161.816 126.854L175.287 137.789L175.813 120.492L190.412 111.114L174.06 105.269Z" fill="white"/>
<path d="M137.517 56.4925C117.164 34.4053 101.899 48.5249 68.0964 36.577C34.2935 24.6291 27.7544 0 27.7544 0C27.7544 0 25.9391 13.8822 25.6938 20.1599C25.4485 26.4377 27.5091 36.4583 27.5091 36.4583C27.5091 36.4583 23.8716 36.3396 13.3305 30.2993C2.78945 24.2659 0 17.5064 0 17.5064C0 17.5064 3.99494 47.5613 28.231 62.2884C52.46 77.0156 79.6046 66.7995 105.046 66.4782C130.488 66.15 142.606 74.6065 153.147 97.0568C153.147 97.0499 157.871 78.5798 137.517 56.4925Z" fill="white"/>
</svg>
