<svg width="43" height="33" viewBox="0 0 43 33" fill="none" xmlns="http://www.w3.org/2000/svg">
<path d="M39.1612 24.8271L38.1741 20.9692L35.8084 24.1238L31.9473 23.9017L34.1242 27.1995L32.727 30.919L36.4369 29.802L39.4341 32.3225L39.5511 28.3358L42.7994 26.1743L39.1612 24.8271Z" fill="white"/>
<path d="M31.0307 13.5856C26.5021 8.49521 23.1057 11.7493 15.5846 8.99572C8.06341 6.24211 6.60846 0.565918 6.60846 0.565918C6.60846 0.565918 6.20457 3.76532 6.14999 5.21213C6.09541 6.65894 6.55388 8.96836 6.55388 8.96836C6.55388 8.96836 5.74453 8.941 3.39915 7.54891C1.05376 6.15842 0.433105 4.60057 0.433105 4.60057C0.433105 4.60057 1.32198 11.5272 6.7145 14.9214C12.1055 18.3155 18.1451 15.961 23.8059 15.887C29.4666 15.8113 32.1629 17.7603 34.5083 22.9343C34.5083 22.9327 35.5593 18.676 31.0307 13.5856Z" fill="white"/>
</svg>
