<svg width="237" height="34" viewBox="0 0 237 34" fill="none" xmlns="http://www.w3.org/2000/svg">
<g clip-path="url(#clip0_700_10)">
<path fill-rule="evenodd" clip-rule="evenodd" d="M12.074 4.23415C12.074 2.37678 13.5951 0.871094 15.4714 0.871094H35.9622C37.8385 0.871094 39.3596 2.37678 39.3596 4.23415V27.8806H33.308V31.8711C33.308 32.9757 32.4126 33.8711 31.308 33.8711H9.41983C7.54348 33.8711 6.0224 32.3654 6.0224 30.508V12.852H2C0.895431 12.852 0 11.9565 0 10.852V10.2246C-1.98038e-07 8.36721 1.52108 6.86152 3.39743 6.86152H6.05167L12.074 6.86156V27.8807L33.308 27.8806L33.3079 6.86156H12.074V4.23415ZM39.3596 27.8806H42.014C43.8904 27.8806 45.4115 29.3863 45.4115 31.2436V33.871H41.3597C40.2552 33.871 39.3598 32.9756 39.3597 31.8711L39.3596 27.8806ZM22.691 21.3647C24.9192 21.3647 26.7255 19.5767 26.7255 17.3711C26.7255 15.1654 24.9192 13.3774 22.691 13.3774C20.4629 13.3774 18.6566 15.1654 18.6566 17.3711C18.6566 19.5767 20.4629 21.3647 22.691 21.3647Z" fill="#B6F600"/>
<path d="M185.891 23.9797C185.891 24.519 185.785 25.0255 185.572 25.4991C185.373 25.9727 185.094 26.3871 184.735 26.7423C184.389 27.0843 183.977 27.3605 183.499 27.571C183.034 27.7684 182.529 27.867 181.984 27.867H168.462C167.93 27.867 167.425 27.7684 166.947 27.571C166.468 27.3605 166.05 27.0843 165.691 26.7423C165.345 26.3871 165.066 25.9727 164.854 25.4991C164.654 25.0255 164.555 24.519 164.555 23.9797V10.7389C164.555 10.1996 164.654 9.69309 164.854 9.2195C165.066 8.74591 165.345 8.3381 165.691 7.99607C166.05 7.64088 166.468 7.36462 166.947 7.16729C167.425 6.9568 167.93 6.85156 168.462 6.85156H181.984C182.529 6.85156 183.034 6.9568 183.499 7.16729C183.977 7.36462 184.389 7.64088 184.735 7.99607C185.094 8.3381 185.373 8.74591 185.572 9.2195C185.785 9.69309 185.891 10.1996 185.891 10.7389V23.9797ZM168.462 10.7389V23.9797H181.984V10.7389H168.462Z" fill="white"/>
<path d="M142.927 10.7389V23.9797H156.409V23.3227C156.409 22.2383 157.288 21.3592 158.373 21.3592C159.457 21.3592 160.336 22.2383 160.336 23.3227V23.9797C160.336 24.519 160.23 25.0255 160.018 25.4991C159.818 25.9727 159.539 26.3871 159.18 26.7423C158.835 27.0843 158.423 27.3605 157.944 27.571C157.466 27.7684 156.954 27.867 156.409 27.867H142.927C142.395 27.867 141.89 27.7684 141.412 27.571C140.933 27.3605 140.515 27.0843 140.156 26.7423C139.81 26.3871 139.531 25.9727 139.319 25.4991C139.119 25.0255 139.02 24.519 139.02 23.9797V10.7389C139.02 10.1996 139.119 9.69309 139.319 9.2195C139.531 8.74591 139.81 8.3381 140.156 7.99607C140.515 7.64088 140.933 7.36462 141.412 7.16729C141.89 6.9568 142.395 6.85156 142.927 6.85156H156.409C156.954 6.85156 157.466 6.9568 157.944 7.16729C158.423 7.36462 158.835 7.64088 159.18 7.99607C159.539 8.3381 159.818 8.74591 160.018 9.2195C160.23 9.69309 160.336 10.1996 160.336 10.7389V11.4117C160.336 12.4962 159.457 13.3753 158.373 13.3753C157.288 13.3753 156.409 12.4962 156.409 11.4117V10.7389H142.927Z" fill="white"/>
<path d="M113.938 8.79525C113.938 7.72178 114.808 6.85156 115.881 6.85156H132.791C133.896 6.85156 134.791 7.74699 134.791 8.85156V9.603C134.791 10.1803 134.542 10.7295 134.107 11.1093L119.498 23.8701L132.855 23.9658C133.927 23.9735 134.791 24.8445 134.791 25.9164C134.791 26.9937 133.918 27.867 132.841 27.867H115.539C114.434 27.867 113.539 26.9716 113.539 25.867V24.875C113.539 24.3053 113.782 23.7627 114.207 23.3833L128.365 10.7389H115.881C114.808 10.7389 113.938 9.86871 113.938 8.79525Z" fill="white"/>
<path d="M87.9961 19.2224C87.9961 17.0754 89.7564 15.335 91.9033 15.335H105.291V10.6745H91.1558C90.0824 10.6745 89.2121 9.80426 89.2121 8.73079C89.2121 7.65733 90.0824 6.78711 91.1558 6.78711H105.291C105.836 6.78711 106.347 6.89235 106.826 7.10283C107.304 7.30016 107.716 7.57642 108.062 7.93161C108.421 8.27365 108.7 8.68146 108.899 9.15505C109.112 9.62864 109.218 10.1351 109.218 10.6745L109.303 21.9001C109.311 23.0105 108.413 23.9152 107.303 23.9152H105.291V24.2507C105.131 26.1985 103.691 27.8026 101.737 27.8026C101.576 27.8026 101.453 27.8026 101.384 27.8026H91.9033C89.7563 27.8026 87.9963 26.0622 87.9961 23.9152V19.2224ZM91.9033 23.9152H105.291V19.2224H91.9033V23.9152Z" fill="white"/>
<path d="M237 15.3673C237 17.5142 235.24 19.2546 233.093 19.2546H219.705V23.9152H233.84C234.914 23.9152 235.784 24.7854 235.784 25.8589C235.784 26.9323 234.914 27.8025 233.84 27.8025H219.705C219.16 27.8025 218.649 27.6973 218.17 27.4868C217.692 27.2895 217.28 27.0132 216.934 26.658C216.576 26.316 216.296 25.9082 216.097 25.4346C215.885 24.961 215.778 24.4545 215.778 23.9152L215.693 12.6896C215.685 11.5791 216.583 10.6744 217.693 10.6744H219.705V10.339C219.865 8.39119 221.305 6.78711 223.259 6.78711C223.42 6.78711 223.543 6.78711 223.612 6.78711H233.093C235.24 6.78711 237 8.5275 237 10.6744V15.3673ZM233.093 10.6744H219.705V15.3673H233.093V10.6744Z" fill="white"/>
<path fill-rule="evenodd" clip-rule="evenodd" d="M62.7326 9.2195C62.5333 9.69309 62.4336 10.1996 62.4336 10.7389V23.9797C62.4336 24.519 62.5333 25.0255 62.7326 25.4991C62.9452 25.9727 63.2243 26.3871 63.5699 26.7423C63.9287 27.0843 64.3473 27.3606 64.8257 27.571C65.3042 27.7684 65.8092 27.867 66.3408 27.867L75.9386 27.8671C76.4569 27.8671 76.9486 27.7684 77.4138 27.5711C77.8789 27.3738 78.2843 27.1107 78.6298 26.7818C78.9886 26.4398 79.2743 26.0451 79.487 25.5978C79.6858 25.2042 79.8023 24.7851 79.8364 24.3405V23.9797H66.3408V10.7389L79.8458 10.739V23.9437H83.7729V10.739C83.7729 10.1997 83.6666 9.69318 83.4539 9.21959C83.2546 8.746 82.9755 8.33819 82.6167 7.99615C82.2712 7.64096 81.8592 7.3647 81.3808 7.16737C80.9023 6.95689 80.3907 6.85165 79.8458 6.85165L66.3408 6.85156C65.8092 6.85156 65.3042 6.9568 64.8257 7.16729C64.3473 7.36462 63.9287 7.64088 63.5699 7.99607C63.2243 8.3381 62.9452 8.74591 62.7326 9.2195ZM83.7729 23.9437H79.8458V33.2091C79.8458 33.5706 80.1388 33.8636 80.5003 33.8636C82.3077 33.8636 83.7729 32.3984 83.7729 30.591V23.9437Z" fill="white"/>
<path fill-rule="evenodd" clip-rule="evenodd" d="M190.416 25.499C190.217 25.0255 190.117 24.519 190.117 23.9796V10.7389C190.117 10.1995 190.217 9.69305 190.416 9.21946C190.629 8.74588 190.908 8.33149 191.253 7.9763C191.612 7.63426 192.031 7.358 192.509 7.14752C192.988 6.95019 193.493 6.85152 194.024 6.85152L203.622 6.85144C204.141 6.85144 204.632 6.95011 205.097 7.14743C205.563 7.34476 205.968 7.60787 206.313 7.93675C206.672 8.27878 206.958 8.67344 207.171 9.12072C207.369 9.51436 207.486 9.93348 207.52 10.3781V10.7388L194.024 10.7389V23.9796L207.529 23.9795V10.7749H211.456V23.9795C211.456 24.5189 211.35 25.0254 211.138 25.499C210.938 25.9726 210.659 26.3804 210.3 26.7224C209.955 27.0776 209.543 27.3538 209.064 27.5512C208.586 27.7617 208.074 27.8669 207.529 27.8669L194.024 27.867C193.493 27.867 192.988 27.7617 192.509 27.5513C192.031 27.3539 191.612 27.0777 191.253 26.7225C190.908 26.3804 190.629 25.9726 190.416 25.499ZM211.456 10.7749H207.529L207.52 1.22872C207.52 1.03126 207.68 0.871094 207.878 0.871094C209.85 0.871094 211.449 2.46866 211.451 4.44057L211.456 10.7749Z" fill="white"/>
</g>
<defs>
<clipPath id="clip0_700_10">
<rect width="237" height="34" fill="white"/>
</clipPath>
</defs>
</svg>
