<svg width="547" height="119" viewBox="0 0 547 119" fill="none" xmlns="http://www.w3.org/2000/svg">
<g clip-path="url(#clip0_9_70)">
<g clip-path="url(#clip1_9_70)">
<path d="M129.304 59.5041C129.304 70.8559 125.581 81.9526 118.604 91.3911C111.627 100.83 101.711 108.186 90.1092 112.53C78.5075 116.873 65.7415 118.009 53.4255 115.794C41.1095 113.579 29.7968 108.112 20.918 100.085C12.0392 92.0571 5.99312 81.8298 3.5444 70.696C1.09569 59.5622 2.3543 48.022 7.16107 37.5348C11.9678 27.0477 20.1069 18.0846 30.5489 11.7791C40.9909 5.47363 53.2668 2.10895 65.8242 2.1106C82.6611 2.1128 98.8075 8.16058 110.712 18.9237C122.617 29.6869 129.304 44.2839 129.304 59.5041Z" fill="url(#paint0_radial_9_70)"/>
<path d="M90.3393 80.5293C85.7338 79.7132 81.3836 77.9901 77.5978 75.4827C73.812 72.9752 70.6835 69.7448 68.4347 66.0209C67.9843 65.2565 66.4492 61.6501 65.9437 60.2043C65.4381 58.7585 64.6935 56.7725 64.4362 56.1991C60.1803 46.743 50.2529 40.7601 41.2998 39.3143C14.505 34.9767 3.67679 57.5785 2.5094 60.6613C3.52052 91.988 31.786 116.908 65.7874 116.908C74.1422 116.886 82.4102 115.375 90.118 112.461C97.8257 109.546 104.822 105.286 110.706 99.9238C116.589 94.5617 121.245 88.2031 124.407 81.212C127.568 74.2209 129.173 66.7348 129.13 59.1822C129.109 59.2227 129.084 59.2616 129.056 59.2986C127.567 63.0461 116.675 84.7588 90.3393 80.5293Z" fill="url(#paint1_radial_9_70)"/>
<path d="M1.71875 59.9459L1.93017 62.7794L2.76664 60.2866C5.40476 53.4063 18.3196 34.9011 42.1178 39.6708C51.9165 41.6484 58.9668 46.6756 63.618 55.0267C63.8845 55.5003 64.0868 55.8576 64.3809 56.4642C64.9784 57.6608 65.392 58.8324 65.5851 59.3061C67.5062 64.0175 68.2416 66.743 71.2474 69.0281L70.4385 66.6184C68.9402 65.347 68.021 62.7794 66.0722 57.5361L65.9527 57.2204L65.392 56.0487C60.603 46.5344 53.0655 40.859 42.3568 38.6986C17.7773 33.7461 4.44879 52.8579 1.71875 59.9459Z" fill="white"/>
<path d="M65.8148 0C52.796 0 40.0696 3.48986 29.2449 10.0283C18.4201 16.5667 9.98328 25.8599 5.0012 36.7329C0.019121 47.6059 -1.28442 59.5702 1.25542 71.1128C3.79527 82.6555 10.0644 93.2581 19.2701 101.58C28.4758 109.902 40.2045 115.569 52.9732 117.865C65.7418 120.161 78.9769 118.983 91.0047 114.479C103.032 109.975 113.313 102.348 120.546 92.5629C127.779 82.7775 131.639 71.273 131.639 59.5042C131.622 43.7274 124.682 28.6012 112.341 17.4454C100 6.28951 83.2673 0.0153995 65.8148 0ZM65.8148 116.64C53.312 116.64 41.0899 113.288 30.6943 107.009C20.2986 100.73 12.1964 91.8043 7.41215 81.3621C2.62792 70.9199 1.37662 59.4296 3.81648 48.3445C6.25633 37.2594 12.2778 27.0772 21.1193 19.0858C29.9608 11.0944 41.2252 5.65256 53.4881 3.44858C65.751 1.24459 78.4614 2.37743 90.012 6.70382C101.563 11.0302 111.435 18.3558 118.38 27.7542C125.324 37.1527 129.03 48.2017 129.029 59.5042C129.007 74.6529 122.339 89.1754 110.489 99.8864C98.6385 110.597 82.5726 116.623 65.8148 116.64Z" fill="white"/>
<path d="M220.232 21.48L217.153 21.9536H149.83L140.188 35.6061L143.681 34.1187C144.859 33.6329 146.092 33.2624 147.358 33.0135C148.277 32.8556 157.791 32.7892 171.56 32.8556V90.7311C171.49 91.3032 171.273 91.8525 170.926 92.3349C170.323 93.1343 169.623 93.8702 168.839 94.5286L166.79 96.2736H194.513L190.275 91.7781C190.092 91.3836 189.998 90.9597 189.999 90.5317V33.4373L207.207 33.3791L210.011 32.8141C214.524 31.5178 219.8 25.0198 221.317 23.0588L222.843 21.0811L220.232 21.48Z" fill="#CA0538"/>
<path d="M313.448 20.4308C301.646 21.054 293.051 25.8236 290.468 33.1858C289.716 35.2711 289.325 37.449 289.31 39.6423C289.295 43.7164 290.798 47.6765 293.575 50.885C296.397 54.2088 305.185 60.7151 312.244 65.9584C315.921 68.6922 319.543 71.3762 320.701 72.4481C322.627 74.1699 323.755 76.4907 323.854 78.9378L323.771 79.9516C323.082 84.3556 321.161 86.6989 317.337 87.6877C312.805 88.8759 305.883 87.6378 302.832 86.3333C298.87 84.6298 295.432 80.8739 294.476 79.7605L290.165 73.9438L288.115 71.1601V91.2026L288.501 91.51C291.856 93.9633 295.7 95.811 299.826 96.9528C307.529 99.2129 319.276 98.6147 323.973 97.2187C329.553 95.5568 336.484 93.5293 341.126 85.6851C342.703 82.8621 343.566 79.7576 343.653 76.5961C343.741 73.4346 343.05 70.295 341.631 67.4043C340.229 65.1172 338.436 63.0447 336.318 61.2636C335.234 60.3246 330.224 56.7432 323.789 52.1647C317.833 47.9269 311.095 43.124 310.498 42.5091L310.728 42.9162L309.772 41.7363C308.528 40.6858 307.751 39.2621 307.584 37.7311L307.474 36.601C307.507 35.2319 307.911 33.891 308.65 32.6956C309.569 31.1583 312.621 29.5962 317.217 29.8039C320.695 29.8876 324.112 30.6471 327.236 32.0308C330.628 33.6927 334.903 37.7893 335.381 38.2629L337.32 40.1409V23.3973L336.53 23.1729C336.364 23.1397 324.525 19.8408 313.448 20.4308Z" fill="#CA0538"/>
<path d="M233.735 21.2058H231.051L233.478 23.4327C234.149 23.89 234.678 24.497 235.013 25.1943L235.114 25.9338C235.077 26.7816 234.91 27.6206 234.618 28.4267C225.278 50.9454 209.22 89.493 208.2 91.1549C207.205 92.55 205.896 93.7394 204.357 94.6449L201.159 96.4979H224.479L221.528 94.6781C221.307 94.5444 221.122 94.3674 220.987 94.1603C220.851 93.9532 220.769 93.7212 220.747 93.4816L221.151 91.587C221.151 91.587 228.091 75.2672 229.066 72.9738H255.539C256.035 74.2285 262.892 91.9111 262.892 91.9111C263.14 92.4909 263.285 93.1021 263.324 93.7225C263.306 93.9158 263.237 94.1023 263.122 94.2658C263.006 94.4294 262.849 94.5652 262.663 94.6615L259.528 96.5145H289.862L286.608 94.6532C285.705 94.1305 284.898 93.4828 284.218 92.7337C283.227 91.554 282.402 90.2672 281.764 88.903L255.962 21.8705L255.704 21.1974H233.735V21.2058ZM242.78 40.6499C244.361 44.6385 251.127 61.7809 251.972 63.9746H232.889L242.78 40.6499Z" fill="#CA0538"/>
<path d="M433.469 21.2058H430.776L433.23 23.4327C433.909 23.8874 434.445 24.4947 434.784 25.1943L434.885 25.9422C434.852 26.7903 434.684 27.6297 434.388 28.435C422.724 56.5044 408.88 89.6509 407.943 91.1799C406.951 92.5738 405.645 93.763 404.11 94.6698L400.92 96.5228H424.203L421.262 94.6781C421.041 94.5449 420.857 94.3678 420.723 94.1605C420.589 93.9532 420.51 93.721 420.49 93.4816L420.894 91.587C420.894 91.587 427.825 75.2672 428.799 72.9738H455.282L462.635 91.9111C462.875 92.4925 463.018 93.1031 463.058 93.7226C463.035 93.9177 462.962 94.1054 462.846 94.2711C462.73 94.4368 462.573 94.576 462.387 94.6781L459.519 96.5145H489.586L486.342 94.6532C485.439 94.1306 484.632 93.4828 483.952 92.7337C482.957 91.5546 482.13 90.2678 481.488 88.9031L455.686 21.8705L455.429 21.1974H433.469V21.2058ZM442.505 40.6499C444.086 44.6385 450.86 61.7809 451.697 63.9746H432.614L442.505 40.6499Z" fill="#CA0538"/>
<path d="M524.921 22.9578L526.309 24.2873C526.309 24.4037 526.438 24.6363 526.539 24.8856C526.419 25.2263 526.254 25.7165 526.208 25.8578C526.162 25.9991 512.42 47.0802 511.629 48.2934L495.608 25.3759C494.202 23.4518 492.083 22.0436 489.633 21.4039H489.486H466.506L470.789 24.0962L473.859 26.1403C475.9 27.9518 477.913 30.1954 477.913 30.1954C478.299 30.5527 480.579 33.8017 486.682 42.4851C486.682 42.4851 497.391 57.733 498.852 59.802C498.852 60.3754 499.137 88.8852 499.137 88.8852V91.2451C499.055 92.5497 497.529 93.9373 496.646 94.5689L493.99 96.3886H523.846L520.114 94.3528C519.407 94.0342 518.782 93.5872 518.275 93.0399C517.94 92.5599 517.744 92.0112 517.705 91.4445V59.0375L518.082 58.4559C529.609 40.2747 536.816 29.0819 537.735 27.7025C539.18 25.8668 541.065 24.3499 543.25 23.2653L547.028 21.2294H523.129L524.921 22.9578Z" fill="#CA0538"/>
<path d="M374.484 20.433C362.672 21.0562 354.087 25.8259 351.504 33.1881C350.759 35.2747 350.371 37.452 350.355 39.6445C350.342 43.717 351.84 47.6757 354.611 50.8872C357.488 54.211 366.358 60.8171 373.491 66.1185C377.342 68.9853 380.624 71.42 381.764 72.4503C383.692 74.1711 384.819 76.4926 384.917 78.94L384.834 79.9455C384.145 84.3661 382.214 86.7011 378.4 87.6899C373.868 88.8782 366.937 87.6401 363.885 86.3355C359.933 84.632 356.532 80.8761 355.521 79.7627L349.187 71.179V74.5028V91.1965L349.573 91.504C352.927 93.9575 356.772 95.8053 360.898 96.9467C368.601 99.2068 380.348 98.6086 385.045 97.2126C390.616 95.5507 397.547 93.5315 402.198 85.679C406.481 78.4332 404.385 70.1985 402.703 67.3982C401.306 65.1083 399.512 63.0352 397.39 61.2575C396.241 60.277 390.763 56.3549 384.944 52.2168C379.521 48.3529 372.195 43.1345 371.579 42.503V42.5528C371.349 42.2633 371.1 41.9858 370.835 41.7219C369.598 40.6669 368.822 39.2456 368.647 37.7167C368.576 37.3435 368.542 36.9653 368.546 36.5866C368.58 35.215 368.984 33.8717 369.722 32.6729C370.641 31.1356 373.675 29.5818 378.28 29.7895C381.742 29.8781 385.144 30.6375 388.253 32.0164C391.544 33.6202 395.607 37.4841 396.388 38.2485L398.328 40.1265V23.3912L397.537 23.1668C395.506 22.6184 384.852 19.8846 374.484 20.433Z" fill="#CA0538"/>
</g>
</g>
<defs>
<radialGradient id="paint0_radial_9_70" cx="0" cy="0" r="1" gradientUnits="userSpaceOnUse" gradientTransform="translate(65.719 60.262) scale(63.5219 57.4229)">
<stop stop-color="white"/>
<stop offset="0.49" stop-color="white"/>
<stop offset="0.65" stop-color="#FDFEFE"/>
<stop offset="0.72" stop-color="#F6F9FC"/>
<stop offset="0.77" stop-color="#E9F0F7"/>
<stop offset="0.81" stop-color="#D7E4F1"/>
<stop offset="0.85" stop-color="#C0D5E8"/>
<stop offset="0.89" stop-color="#A3C2DE"/>
<stop offset="0.92" stop-color="#80ABD1"/>
<stop offset="0.95" stop-color="#5990C3"/>
<stop offset="0.98" stop-color="#2D73B3"/>
<stop offset="1" stop-color="#0055A3"/>
</radialGradient>
<radialGradient id="paint1_radial_9_70" cx="0" cy="0" r="1" gradientUnits="userSpaceOnUse" gradientTransform="translate(41.047 53.0291) scale(67.5155 61.0331)">
<stop stop-color="#EBEFF9"/>
<stop offset="0.1" stop-color="#B8D0EA"/>
<stop offset="0.3" stop-color="#5393CB"/>
<stop offset="0.39" stop-color="#2B7ABF"/>
<stop offset="0.49" stop-color="#206EB6"/>
<stop offset="0.67" stop-color="#044E9E"/>
<stop offset="0.7" stop-color="#004A9B"/>
<stop offset="1" stop-color="#183B7C"/>
</radialGradient>
<clipPath id="clip0_9_70">
<rect width="547" height="119" fill="white"/>
</clipPath>
<clipPath id="clip1_9_70">
<rect width="547" height="119" fill="white"/>
</clipPath>
</defs>
</svg>
