<svg width="66" height="68" viewBox="0 0 66 68" fill="none" xmlns="http://www.w3.org/2000/svg">
<g clip-path="url(#clip0_1_28)">
<g clip-path="url(#clip1_1_28)">
<path d="M33.0557 62.4354C17.3815 62.4354 4.67594 49.7298 4.67594 34.0557C4.67594 18.3816 17.3815 5.67595 33.0557 5.67595C48.7298 5.67595 61.4354 18.3816 61.4354 34.0557C61.4354 49.7298 48.7298 62.4354 33.0557 62.4354ZM24.2296 37.3761L24.2665 37.3562L26.7355 45.5012C27.0534 46.3838 27.4904 46.5428 28.0211 46.469C28.5546 46.398 28.8356 46.1114 29.1847 45.7765L32.5562 42.5185L39.793 47.8766C41.1155 48.606 42.0662 48.2285 42.3954 46.6506L47.098 24.452C47.6173 22.3859 46.7092 21.5572 45.1057 22.2157L17.4837 32.8864C15.5993 33.6413 15.6107 34.6971 17.1432 35.1653L24.2296 37.3789V37.3761Z" fill="white"/>
</g>
</g>
<defs>
<clipPath id="clip0_1_28">
<rect width="66" height="68" fill="white"/>
</clipPath>
<clipPath id="clip1_1_28">
<rect width="68.1114" height="68.1114" fill="white" transform="translate(-1)"/>
</clipPath>
</defs>
</svg>
