<svg width="421" height="110" viewBox="0 0 421 110" fill="none" xmlns="http://www.w3.org/2000/svg">
<g clip-path="url(#clip0_9_82)">
<path d="M56.2709 91.0307C87.3484 91.0307 112.542 70.6527 112.542 45.5153C112.542 20.3778 87.3484 -0.000183105 56.2709 -0.000183105C25.1934 -0.000183105 0.00012207 20.3778 0.00012207 45.5153C0.00012207 70.6527 25.1934 91.0307 56.2709 91.0307Z" fill="#FFAE1F"/>
<path d="M171.432 19.1037C180.482 19.1037 188.647 22.1915 194.498 27.1883C200.349 22.1915 208.514 19.1037 217.564 19.1037C235.321 19.1037 249.678 30.9499 249.678 45.6033V72.2153C249.678 76.3136 245.596 79.6823 240.628 79.6823C235.662 79.6823 231.58 76.3136 231.58 72.2153V69.4642V45.6033C231.58 39.203 225.32 34.0378 217.564 34.0378C209.806 34.0378 203.548 39.203 203.548 45.6033V69.4642V72.2153C203.548 76.3136 199.465 79.6823 194.498 79.6823C189.532 79.6823 185.448 76.3136 185.448 72.2153V69.4642V45.6033C185.448 39.203 179.19 34.0378 171.432 34.0378C163.676 34.0378 157.417 39.203 157.417 45.6033V69.4642V72.2153C157.417 76.3136 153.334 79.6823 148.367 79.6823C143.4 79.6823 139.318 76.3136 139.318 72.2153V45.6033V26.5707C139.318 22.4723 143.4 19.1037 148.367 19.1037C151.497 19.1037 154.219 20.395 155.852 22.4161C160.478 20.3388 165.785 19.1037 171.432 19.1037Z" fill="white"/>
<path d="M324.793 19.1037C321.05 19.1037 317.853 20.9564 316.491 23.6512C310.845 20.788 304.245 19.1037 297.168 19.1037C276.893 19.1037 260.495 32.6342 260.495 49.3649C260.495 66.0956 276.893 79.6261 297.168 79.6261C304.245 79.6261 310.912 77.9418 316.491 75.0785C317.853 77.7173 321.119 79.6261 324.793 79.6261C329.759 79.6261 333.841 76.2575 333.841 72.159V49.3649V26.5707C333.841 22.4723 329.759 19.1037 324.793 19.1037ZM297.168 64.7481C286.895 64.7481 278.594 57.8987 278.594 49.4211C278.594 40.9434 286.895 34.0939 297.168 34.0939C307.443 34.0939 315.743 40.9434 315.743 49.4211C315.743 57.8425 307.443 64.7481 297.168 64.7481Z" fill="white"/>
<path d="M411.816 19.1037C408.142 19.1037 404.945 20.9564 403.447 23.539C389.294 16.4088 370.584 17.8686 358.337 27.9743C343.98 39.8205 343.98 58.9655 358.337 70.8117C370.312 80.6928 388.546 82.321 402.631 75.64V79.6823C402.631 87.9915 394.331 94.841 384.259 94.841C379.021 94.841 373.986 92.9882 370.515 89.6758C370.38 89.5636 370.312 89.4512 370.176 89.3951C366.57 86.4195 360.786 86.4195 357.18 89.3951C353.778 92.2022 353.574 96.6938 356.704 99.6693C363.644 106.238 373.714 110 384.328 110C404.467 110 421.001 96.3568 421.001 79.7384C421.001 79.7384 421.001 76.5382 421.001 72.159V49.3649V26.6831C421.001 22.5284 416.851 19.1037 411.816 19.1037ZM397.255 60.0883C390.112 65.9833 378.477 65.9833 371.333 60.0883C364.188 54.1932 364.188 44.5927 371.333 38.6977C378.477 32.8027 390.112 32.8027 397.255 38.6977C400.793 41.6172 402.631 45.4911 402.631 49.3088V49.4772C402.631 53.2949 400.793 57.1688 397.255 60.0883Z" fill="white"/>
<path d="M87.9169 26.6832C87.9169 22.5286 83.7666 19.1038 78.7316 19.1038C73.6967 19.1038 69.5463 22.5286 69.5463 26.6832V53.4075C69.2742 59.4709 63.2866 64.2993 55.8024 64.2993C48.3181 64.2993 42.3305 59.4709 42.0584 53.3513V26.6271C42.0584 22.4725 37.908 19.0477 32.8731 19.0477C27.8381 19.0477 23.6878 22.4725 23.6878 26.6271V52.9583V53.0145V53.0706C23.6878 67.724 38.044 79.5703 55.8024 79.5703C72.8123 79.5703 86.6922 68.6784 87.8489 54.8672C87.9169 54.5303 87.9169 54.2496 87.9169 53.9128V26.6832Z" fill="white"/>
</g>
<defs>
<clipPath id="clip0_9_82">
<rect width="421" height="110" fill="white"/>
</clipPath>
</defs>
</svg>
