<svg width="66" height="68" viewBox="0 0 66 68" fill="none" xmlns="http://www.w3.org/2000/svg">
<g clip-path="url(#clip0_1_34)">
<g clip-path="url(#clip1_1_34)">
<path d="M59.1385 18.4412C60.4355 23.4984 60.4355 34.0557 60.4355 34.0557C60.4355 34.0557 60.4355 44.6129 59.1385 49.6702C58.4177 52.4656 56.309 54.665 53.6385 55.4086C48.7884 56.7595 32.0557 56.7595 32.0557 56.7595C32.0557 56.7595 15.3316 56.7595 10.4729 55.4086C7.79106 54.6537 5.68528 52.4571 4.97295 49.6702C3.67599 44.6129 3.67599 34.0557 3.67599 34.0557C3.67599 34.0557 3.67599 23.4984 4.97295 18.4412C5.69379 15.6457 7.80241 13.4463 10.4729 12.7028C15.3316 11.3519 32.0557 11.3519 32.0557 11.3519C32.0557 11.3519 48.7884 11.3519 53.6385 12.7028C56.3204 13.4577 58.4262 15.6543 59.1385 18.4412V18.4412ZM26.3798 43.9886L43.4076 34.0557L26.3798 24.1228V43.9886Z" fill="white"/>
</g>
</g>
<defs>
<clipPath id="clip0_1_34">
<rect width="66" height="68" fill="white"/>
</clipPath>
<clipPath id="clip1_1_34">
<rect width="68.1114" height="68.1114" fill="white" transform="translate(-2)"/>
</clipPath>
</defs>
</svg>
