<svg width="454" height="129" viewBox="0 0 454 129" fill="none" xmlns="http://www.w3.org/2000/svg">
<g clip-path="url(#clip0_9_60)">
<path d="M94.399 24.6265H23.5997V88.1416H94.399V24.6265Z" fill="white"/>
<path d="M151.519 81.6948L186.362 46.7605H150.602V35.4704H204.452V46.2876L169.611 81.2219H204.452V92.5124H151.519V81.6948Z" fill="white"/>
<path d="M278.964 35.2087V92.782H265.765L265.631 85.098C260.605 90.7134 251.895 94.0831 241.844 94.0831C222.681 94.0831 209.48 81.7287 209.48 63.9955C209.48 46.2623 222.681 33.9083 241.844 33.9083C252.028 33.9083 260.605 37.2776 265.631 42.893L265.765 35.2087H278.964ZM264.156 63.9364C264.156 53.2374 255.982 45.7894 244.189 45.7894C232.463 45.7894 224.222 53.2374 224.222 63.9364C224.222 74.6354 232.396 82.0833 244.189 82.0833C255.982 82.1425 264.156 74.6946 264.156 63.9364Z" fill="white"/>
<path d="M360.455 63.9364C360.455 81.6696 347.255 94.0241 328.092 94.0241C318.979 94.0241 310.938 91.2455 305.779 86.4575V119.323H290.971V35.2087H304.17L304.305 42.893C309.33 37.2776 318.041 33.9083 328.092 33.9083C347.255 33.9083 360.455 46.2624 360.455 63.9364ZM345.647 63.9364C345.647 53.2374 337.473 45.7894 325.679 45.7894C314.087 45.7894 305.712 53.2374 305.712 63.9364C305.712 74.6354 314.021 82.0833 325.679 82.0833C337.473 82.1425 345.647 74.6946 345.647 63.9364Z" fill="white"/>
<path d="M369.632 93.5281V35.3043H383.905V93.5281H369.632Z" fill="white"/>
<path d="M421.965 95.4212C418.013 95.4212 414.461 94.9485 411.246 94.0022C408.096 93.0568 405.282 91.8743 402.936 90.3375C400.592 88.8006 398.581 87.0864 396.906 85.1357C395.298 83.1851 394.025 81.1754 393.154 79.1065L406.353 74.2003C407.827 77.5696 410.039 79.9932 412.853 81.5892C415.667 83.1851 418.683 83.9536 421.965 83.9536C425.651 83.9536 428.599 83.3034 430.676 81.9438C432.82 80.6434 433.826 79.1656 433.826 77.5106C433.826 75.8554 433.022 74.4368 431.48 73.2546C429.872 72.0724 426.924 71.0084 422.502 70.0626L413.256 68.0528C411.246 67.639 409.167 67.0479 407.09 66.2204C405.013 65.3928 403.137 64.3289 401.329 63.0875C399.586 61.7871 398.112 60.2503 397.04 58.4178C395.968 56.5854 395.365 54.4574 395.365 51.9747C395.365 49.1966 396.035 46.7139 397.442 44.5268C398.782 42.3397 400.658 40.5074 403.07 39.0296C405.416 37.5518 408.23 36.4287 411.312 35.6603C414.461 34.8918 417.744 34.4781 421.295 34.4781C424.177 34.4781 426.991 34.7736 429.672 35.3056C432.352 35.8376 434.83 36.6652 437.109 37.7292C439.387 38.7931 441.464 40.2118 443.273 41.8668C445.083 43.522 446.49 45.4726 447.561 47.7779L434.63 52.5659C433.423 50.0832 431.48 48.2508 428.801 47.1277C426.188 46.0046 423.44 45.4135 420.76 45.4135C419.554 45.4135 418.281 45.5317 417.007 45.8272C415.734 46.1228 414.595 46.4775 413.59 47.0095C412.586 47.5415 411.714 48.1326 411.111 48.9601C410.441 49.7286 410.106 50.6153 410.106 51.5018C410.106 53.0388 410.843 54.2801 412.384 55.1667C413.925 56.0534 416.27 56.881 419.42 57.5311L429.336 59.7182C436.037 61.196 440.929 63.4422 444.077 66.3978C447.227 69.4124 448.768 72.8999 448.768 76.9194C448.768 79.4021 448.098 81.7074 446.824 83.8945C445.551 86.0815 443.743 88.0322 441.33 89.7464C438.986 91.4606 436.104 92.82 432.82 93.7663C429.605 94.9485 425.919 95.4212 421.965 95.4212Z" fill="white"/>
<path fill-rule="evenodd" clip-rule="evenodd" d="M121.099 53.2715C121.029 64.8537 116.601 75.531 109.265 84.2176C101.134 93.0073 90.764 102.382 81.3331 110.908C74.4328 117.146 68.0353 122.929 63.3864 127.695C61.5873 129.445 58.4042 129.445 56.6741 127.635C52.3778 123.127 46.521 117.774 40.1718 111.972C30.4656 103.102 19.6089 93.1805 11.418 83.6143L11.3488 83.554C4.22129 74.8674 0.000152588 64.2504 0.000152588 52.7889C0.000152588 23.4112 27.6106 -0.416617 61.4489 0.00564915C94.5952 0.427916 121.445 24.3764 121.099 53.2715ZM85.341 48.5554C86.6737 49.2517 86.7155 50.9342 85.4187 51.6809L65.5348 63.1303C64.6597 63.6343 64.3411 64.628 64.7883 65.4593L74.155 82.8732C75.0392 84.517 72.9674 86.1737 71.1884 85.2453L35.8272 66.7903C34.4939 66.0945 34.4515 64.4113 35.7487 63.6644L55.6295 52.2167C56.5054 51.7124 56.8236 50.7175 56.3751 49.886L46.9566 32.4245C46.0696 30.7803 48.1432 29.1212 49.9231 30.0511L85.341 48.5554Z" fill="#FD1B14"/>
</g>
<defs>
<clipPath id="clip0_9_60">
<rect width="454" height="129" fill="white"/>
</clipPath>
</defs>
</svg>
