<svg width="539" height="365" viewBox="0 0 539 365" fill="none" xmlns="http://www.w3.org/2000/svg">
<g filter="url(#filter0_i_284_289)">
<path d="M314.732 231.223C316.09 241.041 313.781 250.997 308.198 259.397C302.615 267.797 294.103 274.122 284.111 277.296C274.118 280.47 263.263 280.296 253.392 276.804C243.521 273.313 235.243 266.719 229.969 258.145C224.694 249.571 222.748 239.547 224.462 229.779C226.176 220.01 231.443 211.1 239.368 204.566C247.293 198.031 257.385 194.276 267.928 193.938C278.471 193.601 288.813 196.702 297.194 202.714C297.194 202.714 316.512 202.5 326.237 202.5C321.262 207.326 317.74 213.303 316.029 219.822C314.8 224.61 314.732 231.223 314.732 231.223Z" fill="url(#paint0_linear_284_289)"/>
<path d="M513.143 95.1803C504.151 116.69 487.295 136.327 464.943 151.574C464.844 151.641 464.737 151.697 464.625 151.741C439.673 161.866 413.51 169.127 386.704 173.367L384.467 173.764L384.043 172.571C381.684 166.195 378.725 160.029 375.199 154.147C368.016 142.141 358.59 131.444 347.373 122.568C346.386 121.811 345.658 120.799 345.279 119.657C345.279 119.657 345.279 119.657 345.279 119.637C344.79 118.092 344.63 116.471 344.809 114.867C344.988 113.263 345.502 111.709 346.322 110.292C347.962 107.503 350.64 105.379 353.843 104.327L356.212 103.531C417.453 82.2607 471.985 46.8307 514.757 0.522531C514.942 0.319802 515.181 0.167565 515.45 0.0818503C515.719 -0.00386475 516.008 -0.019886 516.286 0.0354736C516.564 0.0908332 516.821 0.215525 517.03 0.396419C517.239 0.577313 517.392 0.807715 517.473 1.06336V1.08722L517.897 2.43533C518.138 3.18693 530.846 52.8959 513.143 95.1803Z" fill="#DA3193"/>
<path d="M79.5551 240.143C81.1822 240.898 82.8122 241.613 84.445 242.286C101.772 245.704 119.431 247.422 137.137 247.412H139.476C140.442 247.412 141.406 247.399 142.37 247.373L143.777 247.341L145.251 247.305C145.925 247.285 146.594 247.265 147.264 247.237H147.289C148.628 247.186 149.959 247.126 151.294 247.058C151.959 247.027 152.633 246.987 153.298 246.947L154.531 246.772C154.332 246.215 154.141 245.663 153.946 245.106C146.284 222.51 146.247 198.245 153.84 175.629C154.052 175 154.27 174.375 154.493 173.752C154.493 173.752 152.73 173.445 152.73 173.437L152.255 173.358C125.389 169.107 99.1684 161.823 74.1651 151.665C59.8214 145.835 45.9274 139.076 32.5839 131.435C23.1629 126.043 14.0737 120.248 5.31652 114.049C3.7826 112.971 2.26139 111.87 0.748651 110.764C0.70204 111.126 0.634242 111.643 0.566444 112.272C-4.98873 161.436 30.9737 217.635 79.5551 240.143Z" fill="#FF359A"/>
<path d="M459.431 240.143C457.809 240.899 456.181 241.613 454.545 242.287C437.218 245.704 419.559 247.422 401.853 247.413C401.069 247.413 400.294 247.413 399.514 247.413C398.548 247.413 397.584 247.399 396.62 247.373L395.213 247.341L393.739 247.305C393.065 247.285 392.396 247.265 391.726 247.238H391.701C390.362 247.185 389.027 247.125 387.696 247.059C387.027 247.027 386.357 246.987 385.692 246.947L384.459 246.772C384.658 246.216 384.849 245.663 385.04 245.106C392.705 222.511 392.743 198.245 385.15 175.629C384.938 175.001 384.72 174.375 384.497 173.752L386.734 173.354C413.601 169.104 439.821 161.82 464.825 151.661C479.173 145.83 493.071 139.067 506.419 131.424C515.834 126.031 524.923 120.236 533.686 114.037C535.22 112.96 536.741 111.858 538.254 110.753C538.301 111.115 538.368 111.632 538.436 112.26C543.979 161.436 508.016 217.635 459.431 240.143Z" fill="#FF359A"/>
<path d="M193.718 119.617C193.718 119.617 193.718 119.617 193.718 119.637C193.339 120.778 192.611 121.79 191.625 122.548C174.837 135.822 162.169 153.095 154.951 172.551L154.527 173.744L152.29 173.346C125.483 169.107 99.3205 161.846 74.369 151.721C74.256 151.678 74.1492 151.622 74.0512 151.554C51.6949 136.327 34.8217 116.69 25.847 95.1799C8.14327 52.8954 20.8511 3.1865 21.0842 2.4349L21.5079 1.08679C21.5097 1.07893 21.5097 1.07079 21.5079 1.06293C21.5893 0.806466 21.7428 0.57535 21.9524 0.393945C22.162 0.212539 22.4199 0.0875637 22.6989 0.0321917C22.9778 -0.0231803 23.2675 -0.00689758 23.5374 0.0793235C23.8074 0.165545 24.0475 0.31851 24.2325 0.522096C67.0094 46.8148 121.541 82.2296 182.778 103.487L185.146 104.283C188.349 105.334 191.026 107.458 192.663 110.248C193.49 111.666 194.009 113.225 194.19 114.833C194.371 116.441 194.211 118.067 193.718 119.617Z" fill="#DA3193"/>
<path d="M505.689 226.678C504.07 227.354 502.447 228.022 500.812 228.666C485.889 234.583 470.395 239.14 454.544 242.275C437.217 245.692 419.558 247.41 401.852 247.401C401.068 247.401 400.293 247.401 399.513 247.401C398.547 247.401 397.582 247.388 396.619 247.361L395.212 247.329L393.738 247.293C393.064 247.274 392.394 247.254 391.725 247.226H391.7C390.361 247.173 389.026 247.113 387.695 247.047C387.026 247.015 386.356 246.975 385.691 246.936L384.458 246.761C384.233 247.389 384 248.013 383.767 248.642C381.857 253.658 379.577 258.544 376.945 263.264C371.6 272.858 364.837 281.694 356.856 289.51C346.51 299.645 334.274 307.916 320.753 313.915C329.9 314.636 339.165 315.002 348.546 315.013C373.997 315.036 399.364 312.274 424.132 306.781C429.73 304.366 435.177 301.654 440.446 298.657C449.658 293.397 458.454 287.52 466.764 281.072C485.569 265.476 500.501 246.2 510.507 224.602C509.062 225.243 507.452 225.942 505.689 226.678Z" fill="#FF62B1"/>
<path d="M424.12 306.793C402.548 332.697 372.204 352.942 336.759 364.399C317.101 354.374 294.071 348.604 269.495 348.604C244.918 348.604 221.892 354.374 202.231 364.403C166.777 352.942 136.442 332.697 114.869 306.793C139.636 312.285 165.002 315.047 190.451 315.024C217.092 315.051 243.637 312.021 269.495 306.001C295.352 312.02 321.897 315.05 348.538 315.024C373.988 315.047 399.353 312.285 424.12 306.793Z" fill="#FA94C7"/>
<path d="M114.869 306.793C139.636 312.285 165.002 315.048 190.451 315.025C199.827 315.025 209.092 314.659 218.248 313.927C204.726 307.925 192.49 299.65 182.146 289.51C174.164 281.694 167.401 272.857 162.056 263.264C159.429 258.547 157.154 253.665 155.247 248.653C155.014 248.025 154.781 247.4 154.556 246.772L153.323 246.947C152.658 246.987 151.984 247.027 151.319 247.058C149.984 247.126 148.653 247.186 147.314 247.237H147.289C146.62 247.265 145.95 247.285 145.276 247.305L143.802 247.341L142.374 247.357C141.413 247.375 140.449 247.389 139.48 247.396H137.141C119.435 247.411 101.777 245.699 84.449 242.286C68.5956 239.148 53.1003 234.587 38.177 228.666C36.5414 228.018 34.9185 227.35 33.2998 226.678C31.5371 225.934 29.9099 225.234 28.4819 224.594C38.488 246.192 53.4195 265.468 72.2242 281.063C80.5344 287.514 89.33 293.394 98.5424 298.656C103.815 301.661 109.266 304.38 114.869 306.801V306.793Z" fill="#FF62B1"/>
</g>
<defs>
<filter id="filter0_i_284_289" x="0" y="0" width="539" height="370.403" filterUnits="userSpaceOnUse" color-interpolation-filters="sRGB">
<feFlood flood-opacity="0" result="BackgroundImageFix"/>
<feBlend mode="normal" in="SourceGraphic" in2="BackgroundImageFix" result="shape"/>
<feColorMatrix in="SourceAlpha" type="matrix" values="0 0 0 0 0 0 0 0 0 0 0 0 0 0 0 0 0 0 127 0" result="hardAlpha"/>
<feOffset dy="6"/>
<feGaussianBlur stdDeviation="4.5"/>
<feComposite in2="hardAlpha" operator="arithmetic" k2="-1" k3="1"/>
<feColorMatrix type="matrix" values="0 0 0 0 0.0784314 0 0 0 0 0.0941176 0 0 0 0 0.121569 0 0 0 0.25 0"/>
<feBlend mode="normal" in2="shape" result="effect1_innerShadow_284_289"/>
</filter>
<linearGradient id="paint0_linear_284_289" x1="275.058" y1="279.525" x2="275.058" y2="193.914" gradientUnits="userSpaceOnUse">
<stop stop-color="#FF359A"/>
<stop offset="1" stop-color="#FF62B1"/>
</linearGradient>
</defs>
</svg>
